<?xml version="1.0" encoding="UTF-8"?>
<!DOCTYPE svg PUBLIC "-//W3C//DTD SVG 1.1//EN" "http://www.w3.org/Graphics/SVG/1.1/DTD/svg11.dtd">
<svg xmlns="http://www.w3.org/2000/svg" version="1.1" width="409px" height="409px" style="shape-rendering:geometricPrecision; text-rendering:geometricPrecision; image-rendering:optimizeQuality; fill-rule:evenodd; clip-rule:evenodd" xmlns:xlink="http://www.w3.org/1999/xlink">
<g><path style="opacity:0.999" fill="#fad018" d="M 257.5,114.5 C 256.871,116.997 255.204,118.33 252.5,118.5C 241.365,112.454 230.031,106.787 218.5,101.5C 218.5,112.833 218.5,124.167 218.5,135.5C 221.5,135.5 224.5,135.5 227.5,135.5C 227.5,148.5 227.5,161.5 227.5,174.5C 227.5,178.167 227.5,181.833 227.5,185.5C 232.363,185.819 237.03,185.486 241.5,184.5C 245.185,171.745 248.852,159.079 252.5,146.5C 253.222,146.082 253.722,145.416 254,144.5C 255.011,145.337 256.178,145.67 257.5,145.5C 257.5,146.833 257.5,148.167 257.5,149.5C 254.246,161.436 251.246,173.436 248.5,185.5C 251.247,185.813 253.914,185.48 256.5,184.5C 257.365,181.338 258.365,178.338 259.5,175.5C 260.158,174.602 260.824,173.602 261.5,172.5C 263.415,174.071 264.415,176.071 264.5,178.5C 264.5,179.5 264.5,180.5 264.5,181.5C 263.566,182.568 263.232,183.901 263.5,185.5C 279.5,185.5 295.5,185.5 311.5,185.5C 311.828,173.322 311.495,161.322 310.5,149.5C 305.333,147.084 300.333,144.418 295.5,141.5C 295.967,138.703 297.633,137.369 300.5,137.5C 306.64,139.82 312.473,142.82 318,146.5C 318.5,159.162 318.667,171.829 318.5,184.5C 319.209,185.404 320.209,185.737 321.5,185.5C 314.726,190.106 308.392,195.272 302.5,201C 300.212,201.822 297.878,202.489 295.5,203C 289.941,207.524 284.107,211.691 278,215.5C 277.829,208.321 277.329,201.321 276.5,194.5C 274.735,193.539 272.735,193.205 270.5,193.5C 270.813,197.042 270.479,200.375 269.5,203.5C 267.837,197.819 264.17,194.819 258.5,194.5C 258.5,201.5 258.5,208.5 258.5,215.5C 260.5,215.5 262.5,215.5 264.5,215.5C 264.335,212.482 264.502,209.482 265,206.5C 267.188,209.567 269.355,212.567 271.5,215.5C 272.952,216.302 274.618,216.802 276.5,217C 272.545,219.832 268.545,222.332 264.5,224.5C 211.833,224.5 159.167,224.5 106.5,224.5C 106.508,227.545 106.841,230.545 107.5,233.5C 115.114,232.287 122.781,231.62 130.5,231.5C 131.914,240.073 134.914,248.073 139.5,255.5C 133.81,260.518 127.81,265.185 121.5,269.5C 129.122,281.456 138.789,291.456 150.5,299.5C 154.993,294.168 159.327,288.668 163.5,283C 169.088,284.286 174.422,286.452 179.5,289.5C 179.033,292.297 177.367,293.631 174.5,293.5C 171.584,293.107 168.917,292.107 166.5,290.5C 162.116,296.637 157.282,302.304 152,307.5C 135.449,297.949 122.616,284.783 113.5,268C 119.107,262.859 125.107,258.192 131.5,254C 128.821,249.134 126.821,243.968 125.5,238.5C 117.825,239.226 110.158,239.726 102.5,240C 100.74,235.038 99.7404,229.871 99.5,224.5C 97.1667,224.5 94.8333,224.5 92.5,224.5C 92.5,211.5 92.5,198.5 92.5,185.5C 94.8333,185.5 97.1667,185.5 99.5,185.5C 99.5,172.5 99.5,159.5 99.5,146.5C 109.336,141.084 119.002,135.417 128.5,129.5C 127.926,127.941 127.26,126.441 126.5,125C 109.696,120.876 102.863,110.376 106,93.5C 107.647,88.8443 110.48,85.011 114.5,82C 115.449,81.3828 116.282,81.5494 117,82.5C 117.472,86.1105 118.972,89.1105 121.5,91.5C 121.5,92.8333 121.5,94.1667 121.5,95.5C 124.386,95.3901 126.72,94.2234 128.5,92C 126.412,87.9924 124.745,83.8257 123.5,79.5C 129.816,77.899 135.816,78.7324 141.5,82C 144.036,84.705 146.703,87.205 149.5,89.5C 153.058,99.4537 151.724,108.62 145.5,117C 146.059,119.188 147.393,119.854 149.5,119C 165.375,110.299 181.375,101.799 197.5,93.5C 197.833,92.1667 198.167,90.8333 198.5,89.5C 197.5,85.5 196.5,81.5 195.5,77.5C 195.93,73.9795 196.93,70.6462 198.5,67.5C 199.924,65.4855 200.59,63.1522 200.5,60.5C 200.611,59.8826 200.944,59.3826 201.5,59C 206.167,58.3333 210.833,58.3333 215.5,59C 220.801,69.0844 221.801,79.5844 218.5,90.5C 218.833,91.5 219.167,92.5 219.5,93.5C 232.229,100.528 244.895,107.528 257.5,114.5 Z M 210.5,87.5 C 209.71,88.6085 209.21,89.9419 209,91.5C 208.102,88.9309 206.935,86.5976 205.5,84.5C 205.557,82.1155 205.223,79.7822 204.5,77.5C 207.521,64.0061 209.854,64.1728 211.5,78C 211.099,81.1671 210.766,84.3337 210.5,87.5 Z M 137.5,90.5 C 141.424,92.8494 143.09,96.3494 142.5,101C 142.333,102.833 142.167,104.667 142,106.5C 139.428,109.403 137.261,112.569 135.5,116C 137.164,118.651 137.664,121.484 137,124.5C 135.374,122.083 133.874,119.583 132.5,117C 122.421,117.237 116.088,112.571 113.5,103C 113.833,102.5 114.167,102 114.5,101.5C 116.146,104.885 118.813,106.052 122.5,105C 127.5,102.833 132.5,100.667 137.5,98.5C 138.614,95.8438 138.614,93.1771 137.5,90.5 Z"/></g>
<g><path style="opacity:0.878" fill="#fdec7a" d="M 200.5,60.5 C 200.59,63.1522 199.924,65.4855 198.5,67.5C 198.5,66.1667 198.5,64.8333 198.5,63.5C 199.167,62.5 199.833,61.5 200.5,60.5 Z"/></g>
<g><path style="opacity:0.249" fill="#fffef9" d="M 276.5,75.5 C 271.5,75.5 266.5,75.5 261.5,75.5C 263.893,74.79 266.393,74.1233 269,73.5C 271.607,74.1233 274.107,74.79 276.5,75.5 Z"/></g>
<g><path style="opacity:0.058" fill="#fefdf0" d="M 260.5,75.5 C 258.421,77.873 255.754,79.2064 252.5,79.5C 254.579,77.127 257.246,75.7936 260.5,75.5 Z"/></g>
<g><path style="opacity:0.022" fill="#fefce4" d="M 276.5,75.5 C 282.194,75.8513 287.528,77.1847 292.5,79.5C 286.775,79.2934 281.441,77.9601 276.5,75.5 Z"/></g>
<g><path style="opacity:0.996" fill="#fad222" d="M 260.5,75.5 C 260.833,75.5 261.167,75.5 261.5,75.5C 266.5,75.5 271.5,75.5 276.5,75.5C 281.441,77.9601 286.775,79.2934 292.5,79.5C 291.833,82.5 291.167,85.5 290.5,88.5C 292.167,88.5 293.833,88.5 295.5,88.5C 295.025,85.6773 296.025,83.6773 298.5,82.5C 304.261,83.5843 309.928,84.9177 315.5,86.5C 312.517,97.3766 309.851,108.377 307.5,119.5C 301.367,118.533 295.367,117.033 289.5,115C 289.167,114.667 288.833,114.333 288.5,114C 289.567,111.902 290.067,109.735 290,107.5C 288.604,105.473 286.938,105.14 285,106.5C 282.808,113.053 281.475,119.719 281,126.5C 287.543,130.274 294.043,133.941 300.5,137.5C 297.633,137.369 295.967,138.703 295.5,141.5C 289.729,138.78 284.062,135.78 278.5,132.5C 278.167,132.833 277.833,133.167 277.5,133.5C 273.298,148.657 268.965,163.657 264.5,178.5C 264.415,176.071 263.415,174.071 261.5,172.5C 260.824,173.602 260.158,174.602 259.5,175.5C 266.298,151.269 272.798,126.936 279,102.5C 284.76,98.5029 290.427,98.8362 296,103.5C 296.497,105.81 296.663,108.143 296.5,110.5C 298.5,110.833 300.5,111.167 302.5,111.5C 302.941,106.673 304.107,102.007 306,97.5C 306.369,89.2935 303.869,88.4601 298.5,95C 294.463,95.6067 290.463,95.44 286.5,94.5C 284.432,91.8755 283.099,88.8755 282.5,85.5C 273.995,81.3617 265.661,81.5283 257.5,86C 263.212,85.792 268.045,87.6253 272,91.5C 272.167,93 272.333,94.5 272.5,96C 267.765,114.022 262.765,131.855 257.5,149.5C 257.5,148.167 257.5,146.833 257.5,145.5C 256.178,145.67 255.011,145.337 254,144.5C 253.722,145.416 253.222,146.082 252.5,146.5C 254.09,138.73 256.09,131.063 258.5,123.5C 256.878,121.359 254.878,119.692 252.5,118.5C 255.204,118.33 256.871,116.997 257.5,114.5C 260.005,115.741 261.505,114.741 262,111.5C 263.104,106.479 264.271,101.479 265.5,96.5C 265.167,95.5 264.833,94.5 264.5,93.5C 257.223,91.748 253.223,94.748 252.5,102.5C 248.812,102.219 245.145,101.719 241.5,101C 240.978,100.439 240.645,99.772 240.5,99C 241.743,95.8586 242.91,92.6919 244,89.5C 246.727,85.9502 249.561,82.6169 252.5,79.5C 255.754,79.2064 258.421,77.873 260.5,75.5 Z M 293.5,84.5 C 294.773,85.0768 294.773,85.7435 293.5,86.5C 292.537,86.0302 292.537,85.3635 293.5,84.5 Z M 303.5,92.5 C 304.497,92.4701 305.164,92.9701 305.5,94C 303.91,98.8578 302.244,103.691 300.5,108.5C 298.779,103.943 295.779,100.443 291.5,98C 296.45,98.022 300.45,96.1887 303.5,92.5 Z M 286.5,94.5 C 287.598,95.397 287.598,96.2303 286.5,97C 283.592,97.6888 280.925,98.8555 278.5,100.5C 276.568,106.464 274.734,112.464 273,118.5C 272.363,120.303 271.197,121.636 269.5,122.5C 269.167,121.833 268.833,121.167 268.5,120.5C 270.422,111.979 272.422,103.479 274.5,95C 273.138,90.1348 270.138,86.6348 265.5,84.5C 270.661,83.1287 275.661,83.6287 280.5,86C 281.255,88.1748 282.088,90.3415 283,92.5C 283.816,93.8228 284.983,94.4894 286.5,94.5 Z"/></g>
<g><path style="opacity:0.031" fill="#fefded" d="M 149.5,89.5 C 146.703,87.205 144.036,84.705 141.5,82C 135.816,78.7324 129.816,77.899 123.5,79.5C 124.745,83.8257 126.412,87.9924 128.5,92C 126.72,94.2234 124.386,95.3901 121.5,95.5C 121.5,94.1667 121.5,92.8333 121.5,91.5C 122.458,91.9528 123.292,92.6195 124,93.5C 124.833,92.6667 125.667,91.8333 126.5,91C 124.5,87 122.5,83 120.5,79C 122.346,77.0009 124.679,76.1676 127.5,76.5C 137.637,76.4043 144.971,80.7377 149.5,89.5 Z"/></g>
<g><path style="opacity:0.26" fill="#fffefe" d="M 205.5,84.5 C 206.935,86.5976 208.102,88.9309 209,91.5C 209.21,89.9419 209.71,88.6085 210.5,87.5C 210.5,103.167 210.5,118.833 210.5,134.5C 209.167,134.5 207.833,134.5 206.5,134.5C 206.829,119.324 206.496,104.324 205.5,89.5C 205.5,88.8333 205.5,88.1667 205.5,87.5C 205.5,86.5 205.5,85.5 205.5,84.5 Z"/></g>
<g><path style="opacity:0.055" fill="#fefdf1" d="M 198.5,63.5 C 198.5,64.8333 198.5,66.1667 198.5,67.5C 196.93,70.6462 195.93,73.9795 195.5,77.5C 196.5,81.5 197.5,85.5 198.5,89.5C 198.167,90.8333 197.833,92.1667 197.5,93.5C 181.375,101.799 165.375,110.299 149.5,119C 147.393,119.854 146.059,119.188 145.5,117C 151.724,108.62 153.058,99.4537 149.5,89.5C 151.893,92.8506 152.893,96.6839 152.5,101C 152.59,106.393 151.257,111.393 148.5,116C 149.5,116.667 150.5,116.667 151.5,116C 167.158,107.84 182.491,99.173 197.5,90C 193.296,80.9148 193.63,72.0815 198.5,63.5 Z"/></g>
<g><path style="opacity:0.038" fill="#fefcea" d="M 252.5,79.5 C 249.561,82.6169 246.727,85.9502 244,89.5C 242.91,92.6919 241.743,95.8586 240.5,99C 240.645,99.772 240.978,100.439 241.5,101C 245.145,101.719 248.812,102.219 252.5,102.5C 253.223,94.748 257.223,91.748 264.5,93.5C 264.833,94.5 265.167,95.5 265.5,96.5C 264.271,101.479 263.104,106.479 262,111.5C 261.505,114.741 260.005,115.741 257.5,114.5C 244.895,107.528 232.229,100.528 219.5,93.5C 219.167,92.5 218.833,91.5 218.5,90.5C 221.801,79.5844 220.801,69.0844 215.5,59C 210.833,58.3333 206.167,58.3333 201.5,59C 200.944,59.3826 200.611,59.8826 200.5,60.5C 199.833,61.5 199.167,62.5 198.5,63.5C 198.085,60.632 199.085,58.4653 201.5,57C 206.167,56.3333 210.833,56.3333 215.5,57C 218.914,63.407 221.247,70.2403 222.5,77.5C 221.337,82.4671 220.837,87.4671 221,92.5C 226.552,95.8608 232.386,98.5275 238.5,100.5C 240.029,91.3225 244.695,84.3225 252.5,79.5 Z M 258.5,94.5 C 260.977,94.0508 262.977,94.7175 264.5,96.5C 262.866,100.702 261.699,105.035 261,109.5C 260.632,110.91 259.799,111.91 258.5,112.5C 253.84,110.505 249.506,108.005 245.5,105C 247.112,104.28 248.612,104.446 250,105.5C 250.75,104.874 251.584,104.374 252.5,104C 254.123,100.585 256.123,97.4183 258.5,94.5 Z"/></g>
<g><path style="opacity:0.999" fill="#fffefc" d="M 197.5,101.5 C 198.495,112.654 198.828,123.988 198.5,135.5C 195.5,135.5 192.5,135.5 189.5,135.5C 189.5,151.833 189.5,168.167 189.5,184.5C 184.167,184.5 178.833,184.5 173.5,184.5C 166.144,165.444 158.478,146.444 150.5,127.5C 150.833,126.833 151.167,126.167 151.5,125.5C 166.572,116.964 181.905,108.964 197.5,101.5 Z"/></g>
<g><path style="opacity:0.999" fill="#fefefc" d="M 252.5,118.5 C 254.878,119.692 256.878,121.359 258.5,123.5C 256.09,131.063 254.09,138.73 252.5,146.5C 248.852,159.079 245.185,171.745 241.5,184.5C 237.167,184.5 232.833,184.5 228.5,184.5C 228.813,180.958 228.479,177.625 227.5,174.5C 227.5,161.5 227.5,148.5 227.5,135.5C 224.5,135.5 221.5,135.5 218.5,135.5C 218.5,124.167 218.5,112.833 218.5,101.5C 230.031,106.787 241.365,112.454 252.5,118.5 Z"/></g>
<g><path style="opacity:0.996" fill="#fcf5b3" d="M 197.5,101.5 C 197.56,100.957 197.893,100.624 198.5,100.5C 199.824,112.327 199.824,123.993 198.5,135.5C 198.828,123.988 198.495,112.654 197.5,101.5 Z"/></g>
<g><path style="opacity:0.815" fill="#fffdf3" d="M 133.5,85.5 C 142.764,89.462 146.264,96.462 144,106.5C 143.07,109.362 141.403,111.695 139,113.5C 138.333,114.833 138.333,116.167 139,117.5C 148.411,139.908 157.911,162.242 167.5,184.5C 164.291,185.787 161.125,185.787 158,184.5C 149.462,162.417 140.628,140.417 131.5,118.5C 115.269,117.357 109.435,109.024 114,93.5C 114.919,97.5181 116.586,101.185 119,104.5C 124.653,101.672 130.486,99.3389 136.5,97.5C 136.088,93.3464 135.088,89.3464 133.5,85.5 Z M 137.5,90.5 C 138.614,93.1771 138.614,95.8438 137.5,98.5C 132.5,100.667 127.5,102.833 122.5,105C 118.813,106.052 116.146,104.885 114.5,101.5C 114.167,102 113.833,102.5 113.5,103C 116.088,112.571 122.421,117.237 132.5,117C 133.874,119.583 135.374,122.083 137,124.5C 137.664,121.484 137.164,118.651 135.5,116C 137.261,112.569 139.428,109.403 142,106.5C 142.167,104.667 142.333,102.833 142.5,101C 143.09,96.3494 141.424,92.8494 137.5,90.5 Z"/></g>
<g><path style="opacity:0.067" fill="#fefdf2" d="M 121.5,91.5 C 118.972,89.1105 117.472,86.1105 117,82.5C 116.282,81.5494 115.449,81.3828 114.5,82C 110.48,85.011 107.647,88.8443 106,93.5C 102.863,110.376 109.696,120.876 126.5,125C 127.26,126.441 127.926,127.941 128.5,129.5C 119.002,135.417 109.336,141.084 99.5,146.5C 98.5046,158.989 98.1713,171.656 98.5,184.5C 96.1667,184.5 93.8333,184.5 91.5,184.5C 93.0419,183.837 94.7086,183.17 96.5,182.5C 96.9312,181.707 97.2645,180.873 97.5,180C 96.8652,174.202 96.5319,168.369 96.5,162.5C 96.3756,156.395 96.8756,150.395 98,144.5C 107.997,139.831 117.497,134.331 126.5,128C 123.785,126.092 120.785,124.759 117.5,124C 102.676,114.517 99.5091,102.017 108,86.5C 110.077,83.6412 112.577,81.3079 115.5,79.5C 118.823,82.7787 120.823,86.7787 121.5,91.5 Z"/></g>
<g><path style="opacity:0.765" fill="#fefce4" d="M 205.5,89.5 C 206.496,104.324 206.829,119.324 206.5,134.5C 207.833,134.5 209.167,134.5 210.5,134.5C 210.5,118.833 210.5,103.167 210.5,87.5C 210.766,84.3337 211.099,81.1671 211.5,78C 209.854,64.1728 207.521,64.0061 204.5,77.5C 205.223,79.7822 205.557,82.1155 205.5,84.5C 205.5,85.5 205.5,86.5 205.5,87.5C 204.513,84.2927 203.513,80.9593 202.5,77.5C 203.641,74.2446 204.474,70.9112 205,67.5C 206.754,65.75 208.921,65.0833 211.5,65.5C 211.748,69.5059 212.748,73.3392 214.5,77C 213.589,80.1451 212.755,83.3117 212,86.5C 211.5,102.83 211.333,119.163 211.5,135.5C 209.5,135.5 207.5,135.5 205.5,135.5C 205.5,120.167 205.5,104.833 205.5,89.5 Z"/></g>
<g><path style="opacity:0.021" fill="#fefceb" d="M 292.5,79.5 C 294.225,81.7017 296.391,82.035 299,80.5C 303.686,82.2131 308.52,83.3798 313.5,84C 315.5,84.6667 316.833,86 317.5,88C 314.427,98.4549 311.427,108.955 308.5,119.5C 307.372,120.262 306.205,120.929 305,121.5C 300.024,119.418 294.858,117.918 289.5,117C 288.333,116.5 287.5,115.667 287,114.5C 286.805,112.793 286.805,111.126 287,109.5C 284.43,114.541 283.096,119.874 283,125.5C 295.51,131.431 307.51,138.097 319,145.5C 319.333,157.833 319.667,170.167 320,182.5C 321.948,183.109 323.782,183.776 325.5,184.5C 323.167,184.5 320.833,184.5 318.5,184.5C 318.667,171.829 318.5,159.162 318,146.5C 312.473,142.82 306.64,139.82 300.5,137.5C 294.043,133.941 287.543,130.274 281,126.5C 281.475,119.719 282.808,113.053 285,106.5C 286.938,105.14 288.604,105.473 290,107.5C 290.067,109.735 289.567,111.902 288.5,114C 288.833,114.333 289.167,114.667 289.5,115C 295.367,117.033 301.367,118.533 307.5,119.5C 309.851,108.377 312.517,97.3766 315.5,86.5C 309.928,84.9177 304.261,83.5843 298.5,82.5C 296.025,83.6773 295.025,85.6773 295.5,88.5C 293.833,88.5 292.167,88.5 290.5,88.5C 291.167,85.5 291.833,82.5 292.5,79.5 Z M 293.5,84.5 C 292.537,85.3635 292.537,86.0302 293.5,86.5C 294.773,85.7435 294.773,85.0768 293.5,84.5 Z"/></g>
<g><path style="opacity:0.829" fill="#fffdf2" d="M 286.5,94.5 C 290.463,95.44 294.463,95.6067 298.5,95C 303.869,88.4601 306.369,89.2935 306,97.5C 304.107,102.007 302.941,106.673 302.5,111.5C 300.5,111.167 298.5,110.833 296.5,110.5C 296.663,108.143 296.497,105.81 296,103.5C 290.427,98.8362 284.76,98.5029 279,102.5C 272.798,126.936 266.298,151.269 259.5,175.5C 258.365,178.338 257.365,181.338 256.5,184.5C 253.914,185.48 251.247,185.813 248.5,185.5C 251.246,173.436 254.246,161.436 257.5,149.5C 262.765,131.855 267.765,114.022 272.5,96C 272.333,94.5 272.167,93 272,91.5C 268.045,87.6253 263.212,85.792 257.5,86C 265.661,81.5283 273.995,81.3617 282.5,85.5C 283.099,88.8755 284.432,91.8755 286.5,94.5 Z M 303.5,92.5 C 300.45,96.1887 296.45,98.022 291.5,98C 295.779,100.443 298.779,103.943 300.5,108.5C 302.244,103.691 303.91,98.8578 305.5,94C 305.164,92.9701 304.497,92.4701 303.5,92.5 Z M 286.5,94.5 C 284.983,94.4894 283.816,93.8228 283,92.5C 282.088,90.3415 281.255,88.1748 280.5,86C 275.661,83.6287 270.661,83.1287 265.5,84.5C 270.138,86.6348 273.138,90.1348 274.5,95C 272.422,103.479 270.422,111.979 268.5,120.5C 268.833,121.167 269.167,121.833 269.5,122.5C 271.197,121.636 272.363,120.303 273,118.5C 274.734,112.464 276.568,106.464 278.5,100.5C 280.925,98.8555 283.592,97.6888 286.5,97C 287.598,96.2303 287.598,95.397 286.5,94.5 Z"/></g>
<g><path style="opacity:1" fill="#fefefd" d="M 295.5,141.5 C 300.333,144.418 305.333,147.084 310.5,149.5C 310.5,161.167 310.5,172.833 310.5,184.5C 295.167,184.5 279.833,184.5 264.5,184.5C 264.5,183.5 264.5,182.5 264.5,181.5C 264.5,180.5 264.5,179.5 264.5,178.5C 268.965,163.657 273.298,148.657 277.5,133.5C 277.833,133.167 278.167,132.833 278.5,132.5C 284.062,135.78 289.729,138.78 295.5,141.5 Z"/></g>
<g><path style="opacity:1" fill="#fefefc" d="M 150.5,183.5 C 135.676,184.496 120.676,184.829 105.5,184.5C 105.168,172.814 105.501,161.148 106.5,149.5C 114.5,145.167 122.5,140.833 130.5,136.5C 137.927,151.763 144.594,167.429 150.5,183.5 Z"/></g>
<g><path style="opacity:1" fill="#fdf5af" d="M 196.5,142.5 C 196.5,156.5 196.5,170.5 196.5,184.5C 204.5,184.5 212.5,184.5 220.5,184.5C 220.5,170.5 220.5,156.5 220.5,142.5C 221.496,156.657 221.829,170.99 221.5,185.5C 212.833,185.5 204.167,185.5 195.5,185.5C 195.171,170.99 195.504,156.657 196.5,142.5 Z"/></g>
<g><path style="opacity:1" fill="#fefefe" d="M 196.5,142.5 C 204.5,142.5 212.5,142.5 220.5,142.5C 220.5,156.5 220.5,170.5 220.5,184.5C 212.5,184.5 204.5,184.5 196.5,184.5C 196.5,170.5 196.5,156.5 196.5,142.5 Z"/></g>
<g><path style="opacity:1" fill="#fef8ba" d="M 150.5,183.5 C 151.043,183.56 151.376,183.893 151.5,184.5C 136.005,185.826 120.672,185.826 105.5,184.5C 120.676,184.829 135.676,184.496 150.5,183.5 Z"/></g>
<g><path style="opacity:1" fill="#fdf7bd" d="M 227.5,174.5 C 228.479,177.625 228.813,180.958 228.5,184.5C 232.833,184.5 237.167,184.5 241.5,184.5C 237.03,185.486 232.363,185.819 227.5,185.5C 227.5,181.833 227.5,178.167 227.5,174.5 Z"/></g>
<g><path style="opacity:1" fill="#fef8c2" d="M 310.5,149.5 C 311.495,161.322 311.828,173.322 311.5,185.5C 295.5,185.5 279.5,185.5 263.5,185.5C 263.232,183.901 263.566,182.568 264.5,181.5C 264.5,182.5 264.5,183.5 264.5,184.5C 279.833,184.5 295.167,184.5 310.5,184.5C 310.5,172.833 310.5,161.167 310.5,149.5 Z"/></g>
<g><path style="opacity:0.075" fill="#ecf0f4" d="M 325.5,184.5 C 326.695,184.866 327.361,185.699 327.5,187C 326.167,199 326.167,211 327.5,223C 326.924,224.714 325.757,225.881 324,226.5C 322.333,225.167 320.667,225.167 319,226.5C 318.047,232.223 316.88,237.89 315.5,243.5C 313.027,244.797 310.693,244.797 308.5,243.5C 310.735,243.795 312.735,243.461 314.5,242.5C 315.827,236.896 316.827,231.229 317.5,225.5C 320.086,224.52 322.753,224.187 325.5,224.5C 325.5,223.167 325.5,221.833 325.5,220.5C 325.817,216.298 325.483,212.298 324.5,208.5C 324.5,207.5 324.5,206.5 324.5,205.5C 324.5,204.833 324.5,204.167 324.5,203.5C 324.5,202.167 324.5,200.833 324.5,199.5C 325.254,194.537 325.587,189.537 325.5,184.5 Z"/></g>
<g><path style="opacity:0.924" fill="#fbe556" d="M 99.5,146.5 C 99.5,159.5 99.5,172.5 99.5,185.5C 97.1667,185.5 94.8333,185.5 92.5,185.5C 92.5,198.5 92.5,211.5 92.5,224.5C 91.5044,211.344 91.1711,198.01 91.5,184.5C 93.8333,184.5 96.1667,184.5 98.5,184.5C 98.1713,171.656 98.5046,158.989 99.5,146.5 Z"/></g>
<g><path style="opacity:1" fill="#fefdf9" d="M 151.5,194.5 C 151.5,201.5 151.5,208.5 151.5,215.5C 149.5,215.5 147.5,215.5 145.5,215.5C 145.5,208.5 145.5,201.5 145.5,194.5C 147.5,194.5 149.5,194.5 151.5,194.5 Z"/></g>
<g><path style="opacity:1" fill="#fefefb" d="M 176.5,199.5 C 175.513,204.305 175.179,209.305 175.5,214.5C 173.833,214.5 172.167,214.5 170.5,214.5C 170.821,209.305 170.487,204.305 169.5,199.5C 167.5,199.5 165.5,199.5 163.5,199.5C 163.5,197.833 163.5,196.167 163.5,194.5C 169.833,194.5 176.167,194.5 182.5,194.5C 182.5,196.167 182.5,197.833 182.5,199.5C 180.5,199.5 178.5,199.5 176.5,199.5 Z"/></g>
<g><path style="opacity:1" fill="#fffcf4" d="M 199.5,193.5 C 208.619,192.13 213.286,195.963 213.5,205C 213.635,208.042 212.969,210.875 211.5,213.5C 214.661,216.168 214.161,217.501 210,217.5C 205.924,216.205 201.757,215.372 197.5,215C 196.667,214.167 195.833,213.333 195,212.5C 193.466,208.289 193.133,203.956 194,199.5C 195.36,196.977 197.193,194.977 199.5,193.5 Z"/></g>
<g><path style="opacity:1" fill="#fffcf3" d="M 230.5,194.5 C 234.03,193.989 237.196,194.656 240,196.5C 241.895,202.618 244.061,208.618 246.5,214.5C 244.257,215.474 241.924,215.808 239.5,215.5C 239.5,214.5 239.5,213.5 239.5,212.5C 236.5,212.5 233.5,212.5 230.5,212.5C 230.5,213.5 230.5,214.5 230.5,215.5C 228.076,215.808 225.743,215.474 223.5,214.5C 226.239,207.949 228.572,201.282 230.5,194.5 Z"/></g>
<g><path style="opacity:1" fill="#fffdf9" d="M 269.5,203.5 C 269.56,204.043 269.893,204.376 270.5,204.5C 271.487,201.232 271.82,197.898 271.5,194.5C 273.167,194.5 274.833,194.5 276.5,194.5C 276.5,201.5 276.5,208.5 276.5,215.5C 274.833,215.5 273.167,215.5 271.5,215.5C 269.355,212.567 267.188,209.567 265,206.5C 264.502,209.482 264.335,212.482 264.5,215.5C 262.5,215.5 260.5,215.5 258.5,215.5C 258.5,208.5 258.5,201.5 258.5,194.5C 264.17,194.819 267.837,197.819 269.5,203.5 Z"/></g>
<g><path style="opacity:1" fill="#feefbb" d="M 276.5,194.5 C 274.833,194.5 273.167,194.5 271.5,194.5C 271.82,197.898 271.487,201.232 270.5,204.5C 269.893,204.376 269.56,204.043 269.5,203.5C 270.479,200.375 270.813,197.042 270.5,193.5C 272.735,193.205 274.735,193.539 276.5,194.5 Z"/></g>
<g><path style="opacity:1" fill="#e7c24e" d="M 324.5,188.5 C 324.5,189.833 324.5,191.167 324.5,192.5C 316.985,194.844 310.652,199.011 305.5,205C 295.732,210.944 286.399,217.444 277.5,224.5C 274.833,224.5 272.167,224.5 269.5,224.5C 275.438,221.762 280.772,217.928 285.5,213C 286.833,212.667 288.167,212.333 289.5,212C 291.954,209.219 294.954,207.219 298.5,206C 303.131,201.378 308.131,197.045 313.5,193C 317.265,191.583 320.931,190.083 324.5,188.5 Z"/></g>
<g><path style="opacity:1" fill="#fef1c0" d="M 151.5,194.5 C 149.5,194.5 147.5,194.5 145.5,194.5C 145.5,201.5 145.5,208.5 145.5,215.5C 144.508,208.352 144.175,201.019 144.5,193.5C 147.059,193.198 149.393,193.532 151.5,194.5 Z"/></g>
<g><path style="opacity:1" fill="#face12" d="M 201.5,199.5 C 203.144,199.286 204.644,199.62 206,200.5C 206.784,203.76 206.617,206.927 205.5,210C 203.888,210.72 202.388,210.554 201,209.5C 200.253,206.076 200.42,202.743 201.5,199.5 Z"/></g>
<g><path style="opacity:1" fill="#fef6d7" d="M 169.5,199.5 C 170.487,204.305 170.821,209.305 170.5,214.5C 172.167,214.5 173.833,214.5 175.5,214.5C 175.179,209.305 175.513,204.305 176.5,199.5C 176.5,204.833 176.5,210.167 176.5,215.5C 174.167,215.5 171.833,215.5 169.5,215.5C 169.5,210.167 169.5,204.833 169.5,199.5 Z"/></g>
<g><path style="opacity:1" fill="#fcd642" d="M 234.5,201.5 C 236.043,202.736 237.043,204.402 237.5,206.5C 235.833,207.833 234.167,207.833 232.5,206.5C 233.456,204.925 234.123,203.258 234.5,201.5 Z"/></g>
<g><path style="opacity:0.997" fill="#daba65" d="M 324.5,192.5 C 320.688,196.461 316.355,199.961 311.5,203C 303.08,211.374 293.747,218.541 283.5,224.5C 281.5,224.5 279.5,224.5 277.5,224.5C 286.399,217.444 295.732,210.944 305.5,205C 310.652,199.011 316.985,194.844 324.5,192.5 Z"/></g>
<g><path style="opacity:0.999" fill="#97969c" d="M 324.5,205.5 C 324.5,206.5 324.5,207.5 324.5,208.5C 319.604,213.293 314.27,217.627 308.5,221.5C 307.614,222.325 307.281,223.325 307.5,224.5C 305.5,224.5 303.5,224.5 301.5,224.5C 301.751,222.83 302.418,221.33 303.5,220C 310.611,215.399 317.611,210.565 324.5,205.5 Z"/></g>
<g><path style="opacity:1" fill="#f1c939" d="M 321.5,185.5 C 322.5,185.5 323.5,185.5 324.5,185.5C 324.5,186.5 324.5,187.5 324.5,188.5C 320.931,190.083 317.265,191.583 313.5,193C 308.131,197.045 303.131,201.378 298.5,206C 294.954,207.219 291.954,209.219 289.5,212C 288.167,212.333 286.833,212.667 285.5,213C 280.772,217.928 275.438,221.762 269.5,224.5C 267.833,224.5 266.167,224.5 264.5,224.5C 268.545,222.332 272.545,219.832 276.5,217C 274.618,216.802 272.952,216.302 271.5,215.5C 273.167,215.5 274.833,215.5 276.5,215.5C 276.5,208.5 276.5,201.5 276.5,194.5C 277.329,201.321 277.829,208.321 278,215.5C 284.107,211.691 289.941,207.524 295.5,203C 297.878,202.489 300.212,201.822 302.5,201C 308.392,195.272 314.726,190.106 321.5,185.5 Z"/></g>
<g><path style="opacity:0.996" fill="#b6a689" d="M 324.5,199.5 C 324.5,200.833 324.5,202.167 324.5,203.5C 317.877,208.817 310.877,213.65 303.5,218C 301.283,220.16 299.283,222.327 297.5,224.5C 294.167,224.5 290.833,224.5 287.5,224.5C 295.349,219.409 303.349,214.576 311.5,210C 313.05,206.554 315.717,204.554 319.5,204C 321.037,202.293 322.704,200.793 324.5,199.5 Z"/></g>
<g><path style="opacity:0.996" fill="#a79f94" d="M 324.5,203.5 C 324.5,204.167 324.5,204.833 324.5,205.5C 317.611,210.565 310.611,215.399 303.5,220C 302.418,221.33 301.751,222.83 301.5,224.5C 300.167,224.5 298.833,224.5 297.5,224.5C 299.283,222.327 301.283,220.16 303.5,218C 310.877,213.65 317.877,208.817 324.5,203.5 Z"/></g>
<g><path style="opacity:0.996" fill="#cab279" d="M 318.5,184.5 C 320.833,184.5 323.167,184.5 325.5,184.5C 325.587,189.537 325.254,194.537 324.5,199.5C 322.704,200.793 321.037,202.293 319.5,204C 315.717,204.554 313.05,206.554 311.5,210C 303.349,214.576 295.349,219.409 287.5,224.5C 286.167,224.5 284.833,224.5 283.5,224.5C 293.747,218.541 303.08,211.374 311.5,203C 316.355,199.961 320.688,196.461 324.5,192.5C 324.5,191.167 324.5,189.833 324.5,188.5C 324.5,187.5 324.5,186.5 324.5,185.5C 323.5,185.5 322.5,185.5 321.5,185.5C 320.209,185.737 319.209,185.404 318.5,184.5 Z"/></g>
<g><path style="opacity:1" fill="#8493ae" d="M 324.5,208.5 C 325.483,212.298 325.817,216.298 325.5,220.5C 324.686,218.369 324.186,216.036 324,213.5C 320.257,216.621 316.424,219.621 312.5,222.5C 311.831,224.631 311.165,226.631 310.5,228.5C 310.5,227.167 310.5,225.833 310.5,224.5C 309.5,224.5 308.5,224.5 307.5,224.5C 307.281,223.325 307.614,222.325 308.5,221.5C 314.27,217.627 319.604,213.293 324.5,208.5 Z"/></g>
<g><path style="opacity:0.999" fill="#fdfdfb" d="M 264.5,224.5 C 266.167,224.5 267.833,224.5 269.5,224.5C 272.167,224.5 274.833,224.5 277.5,224.5C 279.5,224.5 281.5,224.5 283.5,224.5C 284.833,224.5 286.167,224.5 287.5,224.5C 290.833,224.5 294.167,224.5 297.5,224.5C 298.833,224.5 300.167,224.5 301.5,224.5C 303.5,224.5 305.5,224.5 307.5,224.5C 308.5,224.5 309.5,224.5 310.5,224.5C 310.5,225.833 310.5,227.167 310.5,228.5C 309.781,230.764 309.448,233.097 309.5,235.5C 304.482,235.387 299.482,235.053 294.5,234.5C 291.865,233.271 289.199,233.271 286.5,234.5C 285.16,238.19 283.826,241.857 282.5,245.5C 280.633,249.401 278.633,253.234 276.5,257C 282.174,261.835 287.841,266.669 293.5,271.5C 286.167,283.5 276.5,293.167 264.5,300.5C 260.768,296.051 257.268,291.384 254,286.5C 252.883,284.876 251.383,283.876 249.5,283.5C 242.342,287.576 234.676,290.243 226.5,291.5C 227.24,299.493 227.907,307.493 228.5,315.5C 216.52,316.338 204.52,316.672 192.5,316.5C 190.735,315.539 188.735,315.205 186.5,315.5C 186.5,313.833 186.5,312.167 186.5,310.5C 186.5,310.167 186.5,309.833 186.5,309.5C 187.477,306.713 187.81,303.713 187.5,300.5C 188.434,299.432 188.768,298.099 188.5,296.5C 190.222,292.076 188.555,290.076 183.5,290.5C 182.167,290.167 180.833,289.833 179.5,289.5C 174.422,286.452 169.088,284.286 163.5,283C 159.327,288.668 154.993,294.168 150.5,299.5C 138.789,291.456 129.122,281.456 121.5,269.5C 127.81,265.185 133.81,260.518 139.5,255.5C 134.914,248.073 131.914,240.073 130.5,231.5C 122.781,231.62 115.114,232.287 107.5,233.5C 106.841,230.545 106.508,227.545 106.5,224.5C 159.167,224.5 211.833,224.5 264.5,224.5 Z"/></g>
<g><path style="opacity:0.995" fill="#3e79b8" d="M 325.5,220.5 C 325.5,221.833 325.5,223.167 325.5,224.5C 322.753,224.187 320.086,224.52 317.5,225.5C 316.827,231.229 315.827,236.896 314.5,242.5C 311.482,242.296 308.482,241.963 305.5,241.5C 305.167,241.5 304.833,241.5 304.5,241.5C 301.305,240.764 297.971,240.097 294.5,239.5C 293.948,237.997 293.948,236.331 294.5,234.5C 299.482,235.053 304.482,235.387 309.5,235.5C 309.448,233.097 309.781,230.764 310.5,228.5C 311.165,226.631 311.831,224.631 312.5,222.5C 316.424,219.621 320.257,216.621 324,213.5C 324.186,216.036 324.686,218.369 325.5,220.5 Z"/></g>
<g><path style="opacity:1" fill="#fbdf4b" d="M 154.5,230.5 C 158.078,231.244 160.078,233.577 160.5,237.5C 160.167,238.167 159.833,238.833 159.5,239.5C 157.167,236.833 154.833,236.833 152.5,239.5C 152.167,239 151.833,238.5 151.5,238C 152.222,235.323 153.222,232.823 154.5,230.5 Z"/></g>
<g><path style="opacity:1" fill="#fadd3f" d="M 194.5,232.5 C 194.083,235.159 193.083,237.492 191.5,239.5C 191.5,237.167 191.5,234.833 191.5,232.5C 190.022,232.762 188.689,232.429 187.5,231.5C 190.833,230.167 194.167,230.167 197.5,231.5C 196.675,232.386 195.675,232.719 194.5,232.5 Z"/></g>
<g><path style="opacity:1" fill="#fbdb2b" d="M 250.5,235.5 C 251.29,234.391 251.79,233.058 252,231.5C 252.167,232.833 252.333,234.167 252.5,235.5C 252.415,237.333 251.748,238.666 250.5,239.5C 249.207,237.704 247.707,236.037 246,234.5C 245.798,236.256 245.298,237.922 244.5,239.5C 243.52,236.914 243.187,234.247 243.5,231.5C 246.303,231.961 248.637,233.295 250.5,235.5 Z"/></g>
<g><path style="opacity:1" fill="#fada32" d="M 180.5,234.5 C 180.56,235.043 180.893,235.376 181.5,235.5C 182.281,234.271 182.781,232.938 183,231.5C 183.497,234.146 183.664,236.813 183.5,239.5C 180.944,238.457 178.777,236.79 177,234.5C 176.798,236.256 176.298,237.922 175.5,239.5C 174.516,236.572 174.183,233.572 174.5,230.5C 176.873,231.203 178.873,232.536 180.5,234.5 Z"/></g>
<g><path style="opacity:1" fill="#faee87" d="M 280.5,232.5 C 278.5,232.5 276.5,232.5 274.5,232.5C 274.44,231.957 274.107,231.624 273.5,231.5C 272.52,234.086 272.187,236.753 272.5,239.5C 271.523,236.713 271.19,233.713 271.5,230.5C 275.012,229.945 278.012,230.612 280.5,232.5 Z"/></g>
<g><path style="opacity:1" fill="#fcf6cd" d="M 274.5,232.5 C 276.5,232.5 278.5,232.5 280.5,232.5C 279.766,233.708 279.433,235.041 279.5,236.5C 277.833,236.5 276.167,236.5 274.5,236.5C 275.609,235.71 276.942,235.21 278.5,235C 276.563,234.878 275.23,234.045 274.5,232.5 Z"/></g>
<g><path style="opacity:1" fill="#fadc35" d="M 139.5,236.5 C 139.217,235.711 138.717,235.044 138,234.5C 137.95,236.744 137.117,238.411 135.5,239.5C 135.5,236.5 135.5,233.5 135.5,230.5C 138.595,230.626 140.428,232.293 141,235.5C 142.084,234.335 142.917,233.002 143.5,231.5C 144.325,230.614 145.325,230.281 146.5,230.5C 146.817,233.572 146.484,236.572 145.5,239.5C 144.719,238.271 144.219,236.938 144,235.5C 143,236.833 142,238.167 141,239.5C 139.961,238.756 139.461,237.756 139.5,236.5 Z"/></g>
<g><path style="opacity:1" fill="#fdf093" d="M 183.5,239.5 C 183.664,236.813 183.497,234.146 183,231.5C 182.781,232.938 182.281,234.271 181.5,235.5C 180.893,235.376 180.56,235.043 180.5,234.5C 181.434,233.432 181.768,232.099 181.5,230.5C 182.5,230.5 183.5,230.5 184.5,230.5C 184.81,233.713 184.477,236.713 183.5,239.5 Z"/></g>
<g><path style="opacity:1" fill="#fef7b1" d="M 250.5,239.5 C 251.748,238.666 252.415,237.333 252.5,235.5C 252.333,234.167 252.167,232.833 252,231.5C 251.79,233.058 251.29,234.391 250.5,235.5C 250.5,233.833 250.5,232.167 250.5,230.5C 251.5,230.5 252.5,230.5 253.5,230.5C 253.5,233.833 253.5,237.167 253.5,240.5C 252.209,240.737 251.209,240.404 250.5,239.5 Z"/></g>
<g><path style="opacity:1" fill="#f9f0ab" d="M 194.5,232.5 C 194.5,235.167 194.5,237.833 194.5,240.5C 193.209,240.737 192.209,240.404 191.5,239.5C 193.083,237.492 194.083,235.159 194.5,232.5 Z"/></g>
<g><path style="opacity:1" fill="#f9ef9a" d="M 204.5,233.5 C 205.833,233.5 207.167,233.5 208.5,233.5C 208.5,234.5 208.5,235.5 208.5,236.5C 207.167,236.5 205.833,236.5 204.5,236.5C 205.263,235.732 206.263,235.232 207.5,235C 206.263,234.768 205.263,234.268 204.5,233.5 Z"/></g>
<g><path style="opacity:1" fill="#fdf3a5" d="M 217.5,231.5 C 216.252,232.334 215.585,233.667 215.5,235.5C 215.667,236.833 215.833,238.167 216,239.5C 216.202,237.744 216.702,236.078 217.5,234.5C 218.107,234.624 218.44,234.957 218.5,235.5C 217.549,236.919 217.216,238.585 217.5,240.5C 216.5,240.5 215.5,240.5 214.5,240.5C 214.5,237.167 214.5,233.833 214.5,230.5C 215.791,230.263 216.791,230.596 217.5,231.5 Z"/></g>
<g><path style="opacity:1" fill="#fbde47" d="M 232.5,230.5 C 233.822,230.33 234.989,230.663 236,231.5C 236.639,234.112 237.806,236.446 239.5,238.5C 239,238.833 238.5,239.167 238,239.5C 235.444,236.929 232.944,236.929 230.5,239.5C 230.167,239 229.833,238.5 229.5,238C 230.606,235.511 231.606,233.011 232.5,230.5 Z"/></g>
<g><path style="opacity:1" fill="#fbdc3b" d="M 259.5,230.5 C 261.792,230.244 263.959,230.577 266,231.5C 266.667,232.167 266.667,232.833 266,233.5C 264.301,232.594 262.467,232.261 260.5,232.5C 260.5,234.167 260.5,235.833 260.5,237.5C 263.011,237.162 265.345,237.162 267.5,237.5C 267.291,238.086 266.957,238.586 266.5,239C 258.261,240.611 255.927,237.777 259.5,230.5 Z"/></g>
<g><path style="opacity:1" fill="#f6ecae" d="M 139.5,236.5 C 138.566,237.568 138.232,238.901 138.5,240.5C 137.209,240.737 136.209,240.404 135.5,239.5C 137.117,238.411 137.95,236.744 138,234.5C 138.717,235.044 139.217,235.711 139.5,236.5 Z"/></g>
<g><path style="opacity:1" fill="#fdef9b" d="M 168.5,231.5 C 167.252,232.334 166.585,233.667 166.5,235.5C 166.585,237.333 167.252,238.666 168.5,239.5C 167.791,240.404 166.791,240.737 165.5,240.5C 165.5,237.167 165.5,233.833 165.5,230.5C 166.791,230.263 167.791,230.596 168.5,231.5 Z"/></g>
<g><path style="opacity:1" fill="#fbd933" d="M 168.5,231.5 C 168.5,234.167 168.5,236.833 168.5,239.5C 167.252,238.666 166.585,237.333 166.5,235.5C 166.585,233.667 167.252,232.334 168.5,231.5 Z"/></g>
<g><path style="opacity:1" fill="#fcde40" d="M 218.5,235.5 C 218.44,234.957 218.107,234.624 217.5,234.5C 216.702,236.078 216.202,237.744 216,239.5C 215.833,238.167 215.667,236.833 215.5,235.5C 215.585,233.667 216.252,232.334 217.5,231.5C 219.129,232.625 220.629,233.959 222,235.5C 222.202,233.744 222.702,232.078 223.5,230.5C 224.484,233.428 224.817,236.428 224.5,239.5C 221.708,239.378 219.708,238.044 218.5,235.5 Z"/></g>
<g><path style="opacity:1" fill="#fbda33" d="M 204.5,233.5 C 205.263,234.268 206.263,234.768 207.5,235C 206.263,235.232 205.263,235.732 204.5,236.5C 203.957,236.56 203.624,236.893 203.5,237.5C 205.423,238.308 207.423,238.808 209.5,239C 206.854,239.497 204.187,239.664 201.5,239.5C 201.5,236.5 201.5,233.5 201.5,230.5C 204.247,230.187 206.914,230.52 209.5,231.5C 207.709,232.17 206.042,232.837 204.5,233.5 Z"/></g>
<g><path style="opacity:1" fill="#fbdc3b" d="M 274.5,232.5 C 275.23,234.045 276.563,234.878 278.5,235C 276.942,235.21 275.609,235.71 274.5,236.5C 276.369,237.165 278.369,237.831 280.5,238.5C 277.914,239.48 275.247,239.813 272.5,239.5C 272.187,236.753 272.52,234.086 273.5,231.5C 274.107,231.624 274.44,231.957 274.5,232.5 Z"/></g>
<g><path style="opacity:1" fill="#fcf1a9" d="M 204.5,236.5 C 206.265,237.461 208.265,237.795 210.5,237.5C 210.5,238.5 210.5,239.5 210.5,240.5C 207.287,240.81 204.287,240.477 201.5,239.5C 204.187,239.664 206.854,239.497 209.5,239C 207.423,238.808 205.423,238.308 203.5,237.5C 203.624,236.893 203.957,236.56 204.5,236.5 Z"/></g>
<g><path style="opacity:0.996" fill="#7b90b2" d="M 294.5,234.5 C 293.948,236.331 293.948,237.997 294.5,239.5C 297.971,240.097 301.305,240.764 304.5,241.5C 301.833,241.5 299.167,241.5 296.5,241.5C 295.833,241.5 295.167,241.5 294.5,241.5C 293.295,240.314 291.961,240.314 290.5,241.5C 290.565,241.062 290.399,240.728 290,240.5C 287.618,242.389 285.118,244.055 282.5,245.5C 283.826,241.857 285.16,238.19 286.5,234.5C 289.199,233.271 291.865,233.271 294.5,234.5 Z"/></g>
<g><path style="opacity:0.176" fill="#f1f7fe" d="M 296.5,241.5 C 299.167,241.5 301.833,241.5 304.5,241.5C 304.833,241.5 305.167,241.5 305.5,241.5C 306.5,242.167 307.5,242.833 308.5,243.5C 304.316,243.149 300.316,242.482 296.5,241.5 Z"/></g>
<g><path style="opacity:0.627" fill="#83b4de" d="M 305.5,241.5 C 308.482,241.963 311.482,242.296 314.5,242.5C 312.735,243.461 310.735,243.795 308.5,243.5C 307.5,242.833 306.5,242.167 305.5,241.5 Z"/></g>
<g><path style="opacity:1" fill="#fad120" d="M 187.5,269.5 C 189.515,270.924 191.848,271.59 194.5,271.5C 194.833,271.5 195.167,271.5 195.5,271.5C 198.345,272.344 201.345,273.01 204.5,273.5C 202.622,274.208 200.955,275.374 199.5,277C 197.19,277.497 194.857,277.663 192.5,277.5C 174.666,273.837 160.332,264.67 149.5,250C 152.167,249.333 154.833,249.333 157.5,250C 165.804,259.142 175.804,265.642 187.5,269.5 Z"/></g>
<g><path style="opacity:0.997" fill="#2e78bc" d="M 290.5,241.5 C 289.452,245.366 287.952,249.033 286,252.5C 285.333,253.833 285.333,255.167 286,256.5C 291.227,261.195 296.727,265.528 302.5,269.5C 296.591,279.401 289.591,288.401 281.5,296.5C 275.762,301.054 269.596,305.054 263,308.5C 258.195,303.351 253.695,297.851 249.5,292C 245.384,291.882 241.717,293.216 238.5,296C 236.866,296.494 235.199,296.66 233.5,296.5C 233.312,303.416 233.979,310.249 235.5,317C 235.167,317.833 234.833,318.667 234.5,319.5C 218.223,324.4 201.89,324.733 185.5,320.5C 186.809,317.549 189.143,316.216 192.5,316.5C 204.52,316.672 216.52,316.338 228.5,315.5C 227.907,307.493 227.24,299.493 226.5,291.5C 234.676,290.243 242.342,287.576 249.5,283.5C 251.383,283.876 252.883,284.876 254,286.5C 257.268,291.384 260.768,296.051 264.5,300.5C 276.5,293.167 286.167,283.5 293.5,271.5C 287.841,266.669 282.174,261.835 276.5,257C 278.633,253.234 280.633,249.401 282.5,245.5C 285.118,244.055 287.618,242.389 290,240.5C 290.399,240.728 290.565,241.062 290.5,241.5 Z"/></g>
<g><path style="opacity:1" fill="#9597a0" d="M 224.5,277.5 C 224.511,275.983 225.177,274.816 226.5,274C 230.029,271.94 233.363,269.773 236.5,267.5C 245.638,263.411 253.638,257.578 260.5,250C 262.902,249.186 265.235,249.353 267.5,250.5C 256.189,264.322 241.855,273.322 224.5,277.5 Z"/></g>
<g><path style="opacity:0.133" fill="#d8e6f4" d="M 294.5,241.5 C 293.542,241.953 292.708,242.619 292,243.5C 289.748,247.64 288.415,251.973 288,256.5C 292.237,260.036 296.737,263.202 301.5,266C 302.899,267.062 303.899,268.395 304.5,270C 300.462,275.904 296.295,281.738 292,287.5C 288.902,291.107 285.402,294.107 281.5,296.5C 289.591,288.401 296.591,279.401 302.5,269.5C 296.727,265.528 291.227,261.195 286,256.5C 285.333,255.167 285.333,253.833 286,252.5C 287.952,249.033 289.452,245.366 290.5,241.5C 291.961,240.314 293.295,240.314 294.5,241.5 Z"/></g>
<g><path style="opacity:1" fill="#fdf4ba" d="M 187.5,269.5 C 190.152,269.41 192.485,270.076 194.5,271.5C 191.848,271.59 189.515,270.924 187.5,269.5 Z"/></g>
<g><path style="opacity:1" fill="#fbf3c4" d="M 195.5,271.5 C 201.491,271.966 207.491,272.299 213.5,272.5C 213.5,272.833 213.5,273.167 213.5,273.5C 210.5,273.5 207.5,273.5 204.5,273.5C 201.345,273.01 198.345,272.344 195.5,271.5 Z"/></g>
<g><path style="opacity:1" fill="#bcad8f" d="M 236.5,267.5 C 233.363,269.773 230.029,271.94 226.5,274C 225.177,274.816 224.511,275.983 224.5,277.5C 221.193,278.051 217.86,278.384 214.5,278.5C 216.366,276.141 218.699,274.308 221.5,273C 220.207,272.51 218.873,272.343 217.5,272.5C 223.843,271.329 230.176,269.663 236.5,267.5 Z"/></g>
<g><path style="opacity:1" fill="#d6bd80" d="M 213.5,272.5 C 214.833,272.5 216.167,272.5 217.5,272.5C 218.873,272.343 220.207,272.51 221.5,273C 218.699,274.308 216.366,276.141 214.5,278.5C 208.734,279.804 203.067,279.804 197.5,278.5C 203.978,279.798 209.311,278.132 213.5,273.5C 213.5,273.167 213.5,272.833 213.5,272.5 Z"/></g>
<g><path style="opacity:1" fill="#e6c45a" d="M 204.5,273.5 C 207.5,273.5 210.5,273.5 213.5,273.5C 209.311,278.132 203.978,279.798 197.5,278.5C 195.585,278.784 193.919,278.451 192.5,277.5C 194.857,277.663 197.19,277.497 199.5,277C 200.955,275.374 202.622,274.208 204.5,273.5 Z"/></g>
<g><path style="opacity:0.396" fill="#fefce9" d="M 91.5,184.5 C 91.1711,198.01 91.5044,211.344 92.5,224.5C 94.8333,224.5 97.1667,224.5 99.5,224.5C 99.7404,229.871 100.74,235.038 102.5,240C 110.158,239.726 117.825,239.226 125.5,238.5C 126.821,243.968 128.821,249.134 131.5,254C 125.107,258.192 119.107,262.859 113.5,268C 122.616,284.783 135.449,297.949 152,307.5C 157.282,302.304 162.116,296.637 166.5,290.5C 168.917,292.107 171.584,293.107 174.5,293.5C 176.102,295.074 178.102,295.741 180.5,295.5C 181.968,296.779 182.635,298.446 182.5,300.5C 181.549,301.919 181.216,303.585 181.5,305.5C 180.566,306.568 180.232,307.901 180.5,309.5C 180.007,311.806 179.674,314.139 179.5,316.5C 179.167,316.5 178.833,316.5 178.5,316.5C 178.715,310.943 179.382,305.443 180.5,300C 180.355,299.228 180.022,298.561 179.5,298C 175.619,296.487 171.786,294.987 168,293.5C 165.743,294.748 163.743,296.415 162,298.5C 159.888,302.278 157.388,305.778 154.5,309C 153.167,309.667 151.833,309.667 150.5,309C 135,298.833 122.167,286 112,270.5C 111.333,268.833 111.333,267.167 112,265.5C 117.769,261.698 123.269,257.531 128.5,253C 126.809,249.599 125.309,246.099 124,242.5C 123.311,241.643 122.478,240.977 121.5,240.5C 114.881,241.663 108.214,242.163 101.5,242C 101,241.5 100.5,241 100,240.5C 99.0881,236.205 98.4215,231.872 98,227.5C 95.101,227.023 92.4343,226.023 90,224.5C 90.2659,211.953 90.0992,199.453 89.5,187C 89.6387,185.699 90.3054,184.866 91.5,184.5 Z"/></g>
<g><path style="opacity:0.996" fill="#e6c358" d="M 179.5,289.5 C 180.833,289.833 182.167,290.167 183.5,290.5C 184.377,293.063 183.377,294.73 180.5,295.5C 178.102,295.741 176.102,295.074 174.5,293.5C 177.367,293.631 179.033,292.297 179.5,289.5 Z"/></g>
<g><path style="opacity:1" fill="#d7be80" d="M 183.5,290.5 C 188.555,290.076 190.222,292.076 188.5,296.5C 186.246,297.415 184.246,298.748 182.5,300.5C 182.635,298.446 181.968,296.779 180.5,295.5C 183.377,294.73 184.377,293.063 183.5,290.5 Z"/></g>
<g><path style="opacity:0.996" fill="#bfad8a" d="M 188.5,296.5 C 188.768,298.099 188.434,299.432 187.5,300.5C 185.5,302.167 183.5,303.833 181.5,305.5C 181.216,303.585 181.549,301.919 182.5,300.5C 184.246,298.748 186.246,297.415 188.5,296.5 Z"/></g>
<g><path style="opacity:1" fill="#aca59c" d="M 187.5,300.5 C 187.81,303.713 187.477,306.713 186.5,309.5C 186.649,308.448 186.483,307.448 186,306.5C 184.512,308.16 182.679,309.16 180.5,309.5C 180.232,307.901 180.566,306.568 181.5,305.5C 183.5,303.833 185.5,302.167 187.5,300.5 Z"/></g>
<g><path style="opacity:0.03" fill="#d8e7f4" d="M 281.5,296.5 C 276.369,302.455 270.202,307.122 263,310.5C 257.367,305.212 252.2,299.545 247.5,293.5C 243.54,295.157 239.54,296.823 235.5,298.5C 235.167,299.167 234.833,299.833 234.5,300.5C 235.995,307.129 236.829,313.796 237,320.5C 234.34,321.834 231.506,322.668 228.5,323C 212.025,325.478 195.691,324.811 179.5,321C 178.62,319.644 178.286,318.144 178.5,316.5C 178.833,316.5 179.167,316.5 179.5,316.5C 179.5,316.833 179.5,317.167 179.5,317.5C 179.414,318.496 179.748,319.329 180.5,320C 182.134,320.494 183.801,320.66 185.5,320.5C 201.89,324.733 218.223,324.4 234.5,319.5C 234.833,318.667 235.167,317.833 235.5,317C 233.979,310.249 233.312,303.416 233.5,296.5C 235.199,296.66 236.866,296.494 238.5,296C 241.717,293.216 245.384,291.882 249.5,292C 253.695,297.851 258.195,303.351 263,308.5C 269.596,305.054 275.762,301.054 281.5,296.5 Z"/></g>
<g><path style="opacity:0.996" fill="#9498a6" d="M 186.5,309.5 C 186.5,309.833 186.5,310.167 186.5,310.5C 182.935,311.749 180.601,314.083 179.5,317.5C 179.5,317.167 179.5,316.833 179.5,316.5C 179.674,314.139 180.007,311.806 180.5,309.5C 182.679,309.16 184.512,308.16 186,306.5C 186.483,307.448 186.649,308.448 186.5,309.5 Z"/></g>
<g><path style="opacity:1" fill="#6f88af" d="M 186.5,310.5 C 186.5,312.167 186.5,313.833 186.5,315.5C 188.735,315.205 190.735,315.539 192.5,316.5C 189.143,316.216 186.809,317.549 185.5,320.5C 183.801,320.66 182.134,320.494 180.5,320C 179.748,319.329 179.414,318.496 179.5,317.5C 180.601,314.083 182.935,311.749 186.5,310.5 Z"/></g>
</svg>
